<svg width="9" height="14" viewBox="0 0 9 14" fill="none" xmlns="http://www.w3.org/2000/svg">
<path d="M3.05377 1.0572C3.05377 0.804742 3.24243 0.568773 3.61974 0.349296C4.07812 0.0987003 4.59259 -0.0208361 5.11028 0.00297303C5.58601 0.00297303 5.8939 0.112866 6.03395 0.332651C6.1233 0.456952 6.175 0.605986 6.18247 0.760815V1.25464C7.00425 1.29021 7.80608 1.52794 8.52174 1.94821C8.70014 2.07953 8.78934 2.20622 8.78934 2.32644C8.77736 2.95981 8.65105 3.58526 8.41693 4.17041C8.17906 4.82915 7.94595 5.15867 7.7176 5.15898C7.58336 5.12504 7.45332 5.07524 7.33003 5.01056C6.82241 4.73266 6.26383 4.56926 5.69097 4.53107C5.3924 4.50886 5.09272 4.55365 4.81235 4.66239C4.74133 4.70207 4.68265 4.76187 4.64317 4.83482C4.60368 4.90776 4.58502 4.99084 4.58935 5.07437C4.58935 5.25007 4.69907 5.38786 4.91716 5.48635C5.17669 5.59861 5.44535 5.68666 5.71996 5.74944C6.08317 5.82678 6.43769 5.94284 6.77788 6.09577C7.15352 6.2542 7.51225 6.45271 7.84828 6.68808C8.20525 6.95313 8.48897 7.31056 8.67115 7.72473C8.8841 8.15247 8.99643 8.62637 8.99896 9.10772C9.00714 9.50103 8.96697 9.89382 8.87943 10.2766C8.78623 10.6144 8.64557 10.9361 8.46198 11.2314C8.2396 11.5948 7.93824 11.8992 7.58202 12.1201C7.15048 12.3909 6.67625 12.5806 6.18113 12.6805V12.9436C6.18113 13.1961 5.99247 13.4321 5.61515 13.6515C5.15705 13.9019 4.64284 14.0211 4.12551 13.9969C3.64977 13.9969 3.34189 13.8873 3.20184 13.6682C3.11238 13.5439 3.0604 13.3949 3.05243 13.24V12.7462C2.48329 12.6947 1.91979 12.5901 1.36878 12.4336C0.456259 12.1596 0 11.8632 0 11.5445C0.00349699 10.9002 0.0834868 10.2588 0.238165 9.63483C0.397238 8.9653 0.585897 8.63038 0.80414 8.63008C0.843685 8.63008 1.25579 8.77835 2.04045 9.07489C2.60502 9.31985 3.20362 9.47 3.81375 9.5197C4.07847 9.54655 4.34536 9.50129 4.58801 9.38838C4.64696 9.33914 4.69384 9.27616 4.72485 9.20456C4.75585 9.13296 4.77009 9.05479 4.76641 8.9764C4.76641 8.80069 4.6567 8.65273 4.4386 8.53159C4.18217 8.38502 3.90578 8.27963 3.61885 8.21902C2.86336 8.03239 2.14357 7.71523 1.48964 7.28085C1.14036 7.03595 0.858244 6.70142 0.670785 6.30985C0.443966 5.84615 0.331204 5.33152 0.342529 4.81173C0.342529 2.79175 1.24628 1.6119 3.05377 1.27221V1.0572Z" fill="#0CD15B"/>
</svg>
