<svg width="146" height="41" viewBox="0 0 146 41" fill="none" xmlns="http://www.w3.org/2000/svg">
<g filter="url(#filter0_dd_1894_485083)">
<path d="M18.9902 33.2261C16.1048 33.2261 13.2841 32.3705 10.885 30.7674C8.4858 29.1644 6.61589 26.8859 5.51167 24.2201C4.40746 21.5543 4.11855 18.6209 4.68147 15.7909C5.24439 12.9609 6.63387 10.3613 8.67419 8.32102C10.7145 6.2807 13.314 4.89123 16.144 4.32831C18.974 3.76538 21.9074 4.05429 24.5732 5.15851C27.239 6.26272 29.5175 8.13264 31.1206 10.5318C32.7237 12.931 33.5793 15.7516 33.5793 18.6371C33.5793 22.5063 32.0423 26.2171 29.3063 28.9531C26.5703 31.6891 22.8595 33.2261 18.9902 33.2261Z" fill="#E4003A"/>
<path d="M12.62 25.809L18.9306 10.9532Z" fill="#050001"/>
<path d="M12.62 25.809L18.9306 10.9532" stroke="white" stroke-width="1.18" stroke-miterlimit="3.7" stroke-linecap="round"/>
<path d="M25.4118 25.8055L19.1062 10.95Z" fill="#050001"/>
<path d="M25.4118 25.8055L19.1062 10.95" stroke="white" stroke-width="1.18" stroke-miterlimit="3.7" stroke-linecap="round"/>
<path d="M14.0301 17.3178L23.9717 17.2879Z" fill="#050001"/>
<path d="M14.0301 17.3178L23.9717 17.2879" stroke="white" stroke-width="1.18" stroke-miterlimit="3.7" stroke-linecap="round"/>
<path d="M12.7519 20.2045L25.2481 20.1806Z" fill="#050001"/>
<path d="M12.7519 20.2045L25.2481 20.1806" stroke="white" stroke-width="1.18" stroke-miterlimit="3.7" stroke-linecap="round"/>
</g>
<path d="M42.0154 19.157C42.0154 15.8339 44.4769 13.2493 47.9231 13.2493C50.2615 13.2493 51.7385 14.2339 52.7231 15.5877L50.3846 17.4339C49.7692 16.5723 49.0308 16.08 47.9231 16.08C46.3231 16.08 45.2154 17.4339 45.2154 19.0339C45.2154 20.757 46.3231 21.9877 47.9231 21.9877C49.0308 21.9877 49.7692 21.4954 50.5077 20.6339L52.8461 22.357C51.7385 23.8339 50.3846 24.9416 47.9231 24.9416C44.6 24.9416 42.0154 22.48 42.0154 19.157Z" fill="white"/>
<path d="M54.0769 20.5108C54.0769 18.0492 55.8 16.08 58.2615 16.08C60.9692 16.08 62.3231 18.1723 62.3231 20.6339C62.3231 20.7569 62.3231 21.0031 62.3231 21.1262H56.1692C56.4154 22.48 57.4 23.2185 58.6308 23.2185C59.6154 23.2185 60.2308 22.8492 60.9692 22.2339L62.0769 23.2185C61.2154 24.2031 60.2308 24.8185 58.6308 24.8185C55.9231 24.9416 54.0769 23.2185 54.0769 20.5108ZM60.3538 19.8954C60.2308 18.6646 59.4923 17.68 58.2615 17.68C57.0308 17.68 56.2923 18.5416 56.0462 19.8954H60.3538Z" fill="white"/>
<path d="M66.0154 20.5108L63.0615 16.3262H65.1538L67.1231 19.1569L69.0923 16.3262H71.1846L68.2308 20.3877L71.3077 24.6954H69.2154L67.1231 21.7416L65.0308 24.6954H62.9385L66.0154 20.5108Z" fill="white"/>
<path d="M73.0308 16.3262H75V17.68C75.6154 16.8185 76.4769 16.08 77.8308 16.08C79.8 16.08 81.7692 17.68 81.7692 20.5108C81.7692 23.3416 79.8 24.9416 77.8308 24.9416C76.4769 24.9416 75.6154 24.2031 75 23.4646V27.28H73.0308V16.3262ZM79.8 20.5108C79.8 18.7877 78.6923 17.8031 77.3385 17.8031C75.9846 17.8031 74.8769 18.9108 74.8769 20.5108C74.8769 22.1108 75.9846 23.2185 77.3385 23.2185C78.6923 23.2185 79.8 22.2339 79.8 20.5108Z" fill="white"/>
<path d="M83.8615 13.1262H85.8308V24.8185H83.8615V13.1262Z" fill="white"/>
<path d="M87.8 20.6339C87.8 18.1724 89.7692 16.2031 92.3538 16.2031C94.9384 16.2031 96.9077 18.1724 96.9077 20.6339C96.9077 23.0954 94.9384 25.0647 92.3538 25.0647C89.7692 24.9416 87.8 22.9724 87.8 20.6339ZM94.9384 20.6339C94.9384 19.157 93.8308 17.9262 92.3538 17.9262C90.7538 17.9262 89.7692 19.157 89.7692 20.6339C89.7692 22.1108 90.8769 23.3416 92.3538 23.3416C93.9538 23.2185 94.9384 21.9877 94.9384 20.6339Z" fill="white"/>
<path d="M98.7538 16.3262H100.723V18.1723C101.215 16.9416 102.2 16.08 103.677 16.08V18.1723H103.554C101.831 18.1723 100.723 19.28 100.723 21.4954V24.6954H98.7538V16.3262Z" fill="white"/>
<path d="M104.662 20.5108C104.662 18.0492 106.385 16.08 108.846 16.08C111.554 16.08 112.908 18.1723 112.908 20.6339C112.908 20.7569 112.908 21.0031 112.908 21.1262H106.754C107 22.48 107.985 23.2185 109.215 23.2185C110.2 23.2185 110.815 22.8492 111.554 22.2339L112.662 23.2185C111.8 24.2031 110.815 24.8185 109.215 24.8185C106.508 24.9416 104.662 23.2185 104.662 20.5108ZM110.938 19.8954C110.815 18.6646 110.077 17.68 108.846 17.68C107.615 17.68 106.877 18.5416 106.631 19.8954H110.938Z" fill="white"/>
<path d="M114.754 16.3262H116.723V18.1723C117.215 16.9416 118.2 16.08 119.677 16.08V18.1723H119.554C117.831 18.1723 116.723 19.28 116.723 21.4954V24.6954H114.754V16.3262Z" fill="white"/>
<path d="M119.8 22.6031H121.892V24.8185H119.8V22.6031Z" fill="white"/>
<path d="M124.231 13.1262H126.323V14.9723H124.231V13.1262ZM124.354 16.3262H126.323V24.8185H124.354V16.3262Z" fill="white"/>
<path d="M128.415 20.6339C128.415 18.1724 130.385 16.2031 132.969 16.2031C135.554 16.2031 137.523 18.1724 137.523 20.6339C137.523 23.0954 135.554 25.0647 132.969 25.0647C130.262 24.9416 128.415 22.9724 128.415 20.6339ZM135.431 20.6339C135.431 19.157 134.323 17.9262 132.846 17.9262C131.246 17.9262 130.262 19.157 130.262 20.6339C130.262 22.1108 131.369 23.3416 132.846 23.3416C134.446 23.2185 135.431 21.9877 135.431 20.6339Z" fill="white"/>
<defs>
<filter id="filter0_dd_1894_485083" x="0" y="0" width="38" height="40.56" filterUnits="userSpaceOnUse" color-interpolation-filters="sRGB">
<feFlood flood-opacity="0" result="BackgroundImageFix"/>
<feColorMatrix in="SourceAlpha" type="matrix" values="0 0 0 0 0 0 0 0 0 0 0 0 0 0 0 0 0 0 127 0" result="hardAlpha"/>
<feOffset dy="1"/>
<feGaussianBlur stdDeviation="1"/>
<feColorMatrix type="matrix" values="0 0 0 0 0.0627451 0 0 0 0 0.0941176 0 0 0 0 0.156863 0 0 0 0.06 0"/>
<feBlend mode="normal" in2="BackgroundImageFix" result="effect1_dropShadow_1894_485083"/>
<feColorMatrix in="SourceAlpha" type="matrix" values="0 0 0 0 0 0 0 0 0 0 0 0 0 0 0 0 0 0 127 0" result="hardAlpha"/>
<feOffset dy="1"/>
<feGaussianBlur stdDeviation="1.5"/>
<feColorMatrix type="matrix" values="0 0 0 0 0.0627451 0 0 0 0 0.0941176 0 0 0 0 0.156863 0 0 0 0.1 0"/>
<feBlend mode="normal" in2="effect1_dropShadow_1894_485083" result="effect2_dropShadow_1894_485083"/>
<feBlend mode="normal" in="SourceGraphic" in2="effect2_dropShadow_1894_485083" result="shape"/>
</filter>
</defs>
</svg>
