<svg width="40" height="40" viewBox="0 0 40 40" fill="none" xmlns="http://www.w3.org/2000/svg">
<rect width="40" height="40" rx="20" fill="#F2F4F7"/>
<g opacity="0.08">
<rect x="0.375" y="0.375" width="39.25" height="39.25" rx="19.625" stroke="black" stroke-width="0.75"/>
</g>
<path d="M28 29C28 27.6044 28 26.9067 27.8278 26.3389C27.44 25.0605 26.4395 24.06 25.1611 23.6722C24.5933 23.5 23.8956 23.5 22.5 23.5H17.5C16.1044 23.5 15.4067 23.5 14.8389 23.6722C13.5605 24.06 12.56 25.0605 12.1722 26.3389C12 26.9067 12 27.6044 12 29M24.5 15.5C24.5 17.9853 22.4853 20 20 20C17.5147 20 15.5 17.9853 15.5 15.5C15.5 13.0147 17.5147 11 20 11C22.4853 11 24.5 13.0147 24.5 15.5Z" stroke="#475467" stroke-width="2" stroke-linecap="round" stroke-linejoin="round"/>
</svg>
