<svg width="40" height="40" viewBox="0 0 40 40" fill="none" xmlns="http://www.w3.org/2000/svg">
<rect width="40" height="40" rx="20" fill="#F2F4F7"/>
<path d="M16.5376 17.6172C16.4912 17.183 16.2957 16.8449 15.951 16.603C15.6096 16.361 15.1655 16.2401 14.6186 16.2401C14.2341 16.2401 13.9044 16.2981 13.6293 16.4141C13.3542 16.5301 13.1437 16.6875 12.9979 16.8864C12.852 17.0852 12.7775 17.3123 12.7741 17.5675C12.7741 17.7796 12.8222 17.9635 12.9183 18.1193C13.0178 18.2751 13.152 18.4077 13.321 18.517C13.4901 18.6231 13.6773 18.7126 13.8828 18.7855C14.0883 18.8584 14.2955 18.9197 14.5043 18.9695L15.4588 19.2081C15.8433 19.2976 16.2128 19.4186 16.5675 19.571C16.9254 19.7235 17.2453 19.9157 17.527 20.1477C17.812 20.3797 18.0374 20.6598 18.2031 20.9879C18.3688 21.3161 18.4517 21.7005 18.4517 22.1413C18.4517 22.7379 18.2992 23.2633 17.9943 23.7173C17.6894 24.1681 17.2486 24.5211 16.6719 24.7763C16.0985 25.0282 15.4041 25.1541 14.5888 25.1541C13.7966 25.1541 13.1089 25.0315 12.5256 24.7862C11.9455 24.541 11.4915 24.183 11.1634 23.7124C10.8385 23.2417 10.6629 22.6683 10.6364 21.9922H12.451C12.4775 22.3468 12.5869 22.6418 12.7791 22.8771C12.9714 23.1125 13.2216 23.2881 13.5298 23.4041C13.8414 23.5201 14.1894 23.5781 14.5739 23.5781C14.9749 23.5781 15.3262 23.5185 15.6278 23.3991C15.9328 23.2765 16.1714 23.1075 16.3438 22.892C16.5161 22.6733 16.6039 22.4181 16.6072 22.1264C16.6039 21.8613 16.526 21.6425 16.3736 21.4702C16.2211 21.2945 16.0073 21.1487 15.7322 21.0327C15.4605 20.9134 15.1423 20.8073 14.7777 20.7145L13.6193 20.4162C12.7808 20.2008 12.1179 19.8743 11.6307 19.4368C11.1468 18.996 10.9048 18.411 10.9048 17.6818C10.9048 17.0819 11.0672 16.5566 11.392 16.1058C11.7202 15.6551 12.166 15.3054 12.7294 15.0568C13.2929 14.8049 13.9309 14.679 14.6435 14.679C15.366 14.679 15.9991 14.8049 16.5426 15.0568C17.0895 15.3054 17.5187 15.6518 17.8303 16.0959C18.1418 16.5367 18.3026 17.0438 18.3125 17.6172H16.5376ZM21.2395 25H19.2708L22.8553 14.8182H25.1323L28.7218 25H26.753L24.0336 16.9062H23.954L21.2395 25ZM21.3042 21.0078H26.6735V22.4893H21.3042V21.0078Z" fill="#475467"/>
<g opacity="0.08">
<rect x="0.375" y="0.375" width="39.25" height="39.25" rx="19.625" stroke="black" stroke-width="0.75"/>
</g>
</svg>
